# xmcd
#
# Track frame offsets: 
#        150
#        15906
#        29063
#        43752
#        59244
#        79034
#        92668
#        107261
#        121982
#        135091
#        150667
#        165343
#        181999
#
# Disc length: 2624 seconds
#
# Revision: 0
# Processed by: cddbd v1.4PL0 Copyright (c) Steve Scherf et al.
# Submitted via: ExactAudioCopy v0.90b3
#
DISCID=960a3e0d
DTITLE=OS TIRANOS - CANTANDO O RIO GRANDE
DYEAR=1900
DGENRE=Country
TTITLE0=CANTANDO O RIO GRANDE (VANERA)
TTITLE1=ISTO É RODEIO (VANERÃO)
TTITLE2=NO FOGO DA PAIXÃO (CHAMAMÉ)
TTITLE3=GAÚCHOS DO LITORAL (VANERA)
TTITLE4=SÃO FRANCISCO É TERRA BOA (TOADA)
TTITLE5=TRIBUTO PARA UM TROPEIRO (RANCHEIRA)
TTITLE6=O SOM DA TERRA (VANERÃO)
TTITLE7=ESPERA (VALSA)
TTITLE8=CAMPEANDO UMA FESTA (BUGIO)
TTITLE9=PORTEIRA À FORA (CHAMAMÉ)
TTITLE10=VEM COMIGO (XOTE)
TTITLE11=QUEBRA QUEIXO (VANERA)
TTITLE12=TEMPORAL DE VERÃO (MILONGA)
EXTD=
EXTT0=
EXTT1=
EXTT2=
EXTT3=
EXTT4=
EXTT5=
EXTT6=
EXTT7=
EXTT8=
EXTT9=
EXTT10=
EXTT11=
EXTT12=
PLAYORDER=
